<svg
  width="12"
  height="12"
  viewBox="0 0 12 12"
  fill="none"
  xmlns="http://www.w3.org/2000/svg"
>
  <path
    fill-rule="evenodd"
    clip-rule="evenodd"
    d="M3.59999 1.19995C3.28173 1.19995 2.97651 1.32638 2.75147 1.55142C2.52642 1.77647 2.39999 2.08169 2.39999 2.39995V9.59995C2.39999 9.91821 2.52642 10.2234 2.75147 10.4485C2.97651 10.6735 3.28173 10.8 3.59999 10.8H8.39999C8.71825 10.8 9.02348 10.6735 9.24852 10.4485C9.47357 10.2234 9.59999 9.91821 9.59999 9.59995V4.44835C9.59993 4.13012 9.47345 3.82494 9.24839 3.59995L7.19999 1.55155C6.975 1.32649 6.66983 1.20002 6.35159 1.19995H3.59999ZM6.59999 4.79995C6.59999 4.64082 6.53678 4.48821 6.42426 4.37569C6.31174 4.26317 6.15912 4.19995 5.99999 4.19995C5.84086 4.19995 5.68825 4.26317 5.57573 4.37569C5.46321 4.48821 5.39999 4.64082 5.39999 4.79995V6.95155L4.62419 6.17575C4.56885 6.11845 4.50264 6.07274 4.42944 6.04129C4.35623 6.00984 4.2775 5.99329 4.19783 5.9926C4.11817 5.99191 4.03916 6.00709 3.96542 6.03726C3.89168 6.06743 3.82469 6.11198 3.76836 6.16831C3.71202 6.22465 3.66747 6.29164 3.6373 6.36538C3.60713 6.43912 3.59195 6.51812 3.59264 6.59779C3.59334 6.67746 3.60989 6.75619 3.64133 6.82939C3.67278 6.9026 3.71849 6.9688 3.77579 7.02415L5.57579 8.82415C5.68831 8.93663 5.8409 8.99982 5.99999 8.99982C6.15909 8.99982 6.31168 8.93663 6.42419 8.82415L8.22419 7.02415C8.33349 6.91099 8.39396 6.75943 8.3926 6.60211C8.39123 6.44479 8.32813 6.29431 8.21688 6.18306C8.10564 6.07182 7.95515 6.00871 7.79783 6.00735C7.64052 6.00598 7.48896 6.06646 7.37579 6.17575L6.59999 6.95155V4.79995Z"
    fill="white"
  />
</svg>
