<svg
  width="32"
  height="32"
  viewBox="0 0 32 32"
  fill="none"
  xmlns="http://www.w3.org/2000/svg"
>
  <path
    fill-rule="evenodd"
    clip-rule="evenodd"
    d="M16 32C20.2435 32 24.3131 30.3143 27.3137 27.3137C30.3143 24.3131 32 20.2435 32 16C32 11.7565 30.3143 7.68687 27.3137 4.68629C24.3131 1.68571 20.2435 0 16 0C11.7565 0 7.68687 1.68571 4.68629 4.68629C1.68571 7.68687 0 11.7565 0 16C0 20.2435 1.68571 24.3131 4.68629 27.3137C7.68687 30.3143 11.7565 32 16 32ZM13.414 10.586C13.0368 10.2217 12.5316 10.0201 12.0072 10.0247C11.4828 10.0292 10.9812 10.2395 10.6104 10.6104C10.2395 10.9812 10.0292 11.4828 10.0247 12.0072C10.0201 12.5316 10.2217 13.0368 10.586 13.414L13.172 16L10.586 18.586C10.395 18.7705 10.2426 18.9912 10.1378 19.2352C10.033 19.4792 9.97781 19.7416 9.9755 20.0072C9.97319 20.2728 10.0238 20.5361 10.1244 20.7819C10.2249 21.0277 10.3734 21.251 10.5612 21.4388C10.749 21.6266 10.9723 21.7751 11.2181 21.8756C11.4639 21.9762 11.7272 22.0268 11.9928 22.0245C12.2584 22.0222 12.5208 21.967 12.7648 21.8622C13.0088 21.7574 13.2295 21.605 13.414 21.414L16 18.828L18.586 21.414C18.9632 21.7783 19.4684 21.9799 19.9928 21.9753C20.5172 21.9708 21.0188 21.7605 21.3896 21.3896C21.7605 21.0188 21.9708 20.5172 21.9753 19.9928C21.9799 19.4684 21.7783 18.9632 21.414 18.586L18.828 16L21.414 13.414C21.7783 13.0368 21.9799 12.5316 21.9753 12.0072C21.9708 11.4828 21.7605 10.9812 21.3896 10.6104C21.0188 10.2395 20.5172 10.0292 19.9928 10.0247C19.4684 10.0201 18.9632 10.2217 18.586 10.586L16 13.172L13.414 10.586Z"
    fill="#EF4444"
  />
</svg>
