<svg width="24" height="24" viewBox="0 0 24 24" fill="none" xmlns="http://www.w3.org/2000/svg">
    <path fill-rule="evenodd" clip-rule="evenodd" d="M3.6 5.99999C3.6 5.68173 3.72643 5.3765 3.95147 5.15146C4.17651 4.92642 4.48174 4.79999 4.8 4.79999H19.2C19.5183 4.79999 19.8235 4.92642 20.0485 5.15146C20.2736 5.3765 20.4 5.68173 20.4 5.99999C20.4 6.31825 20.2736 6.62347 20.0485 6.84852C19.8235 7.07356 19.5183 7.19999 19.2 7.19999H4.8C4.48174 7.19999 4.17651 7.07356 3.95147 6.84852C3.72643 6.62347 3.6 6.31825 3.6 5.99999ZM3.6 12C3.6 11.6817 3.72643 11.3765 3.95147 11.1515C4.17651 10.9264 4.48174 10.8 4.8 10.8H19.2C19.5183 10.8 19.8235 10.9264 20.0485 11.1515C20.2736 11.3765 20.4 11.6817 20.4 12C20.4 12.3182 20.2736 12.6235 20.0485 12.8485C19.8235 13.0736 19.5183 13.2 19.2 13.2H4.8C4.48174 13.2 4.17651 13.0736 3.95147 12.8485C3.72643 12.6235 3.6 12.3182 3.6 12ZM3.6 18C3.6 17.6817 3.72643 17.3765 3.95147 17.1515C4.17651 16.9264 4.48174 16.8 4.8 16.8H19.2C19.5183 16.8 19.8235 16.9264 20.0485 17.1515C20.2736 17.3765 20.4 17.6817 20.4 18C20.4 18.3182 20.2736 18.6235 20.0485 18.8485C19.8235 19.0736 19.5183 19.2 19.2 19.2H4.8C4.48174 19.2 4.17651 19.0736 3.95147 18.8485C3.72643 18.6235 3.6 18.3182 3.6 18Z" fill="#4B5563"/>
</svg>
