<svg width="31" height="31" viewBox="0 0 31 31" fill="none" xmlns="http://www.w3.org/2000/svg">
<circle cx="15.5" cy="15.5" r="14" fill="white" stroke="#6B7280" stroke-width="3"/>
<path d="M16.2433 8.90909L16.0323 18.152H13.9741L13.7695 8.90909H16.2433ZM15.0032 22.1406C14.6154 22.1406 14.283 22.0043 14.006 21.7315C13.7333 21.4588 13.5969 21.1264 13.5969 20.7344C13.5969 20.3509 13.7333 20.0227 14.006 19.75C14.283 19.4773 14.6154 19.3409 15.0032 19.3409C15.3825 19.3409 15.7106 19.4773 15.9876 19.75C16.2688 20.0227 16.4094 20.3509 16.4094 20.7344C16.4094 20.9943 16.3434 21.2308 16.2113 21.4439C16.0835 21.657 15.913 21.8274 15.6999 21.9553C15.4911 22.0788 15.2589 22.1406 15.0032 22.1406Z" fill="#6B7280"/>
</svg>
