<?xml version="1.0" encoding="utf-8"?>
<!-- Generator: Adobe Illustrator 26.5.3, SVG Export Plug-In . SVG Version: 6.00 Build 0)  -->
<svg version="1.1" xmlns="http://www.w3.org/2000/svg" xmlns:xlink="http://www.w3.org/1999/xlink" x="0px" y="0px"
	 viewBox="0 0 1080 1080" style="enable-background:new 0 0 1080 1080;" xml:space="preserve">
<style type="text/css">
	.st0{fill:none;stroke:#CCCCCC;stroke-width:2;stroke-miterlimit:10;}
	.st1{fill:#E6E6E6;}
	.st2{fill:#B3B3B3;stroke:#4D4D4D;stroke-width:4;stroke-miterlimit:10;}
	.st3{fill:#FFFFFF;stroke:#4D4D4D;stroke-width:4;stroke-miterlimit:10;}
	.st4{fill:none;stroke:#E6E6E6;stroke-width:4;stroke-miterlimit:10;}
	.st5{fill:#E6E6E6;stroke:#FF7F91;stroke-width:3;stroke-miterlimit:10;}
	.st6{fill:#FFD97F;stroke:#4D4D4D;stroke-width:4;stroke-miterlimit:10;}
	.st7{fill:none;stroke:#4D4D4D;stroke-width:4;stroke-miterlimit:10;}
	.st8{fill:#B3B3B3;}
	.st9{fill:#F2F2F2;}
	.st10{fill:none;}
	.st11{fill:#4D4D4D;}
	.st12{font-family:'Arial-BoldItalicMT';}
	.st13{font-size:36px;}
	.st14{letter-spacing:7;}
	.st15{fill:#999999;}
	.st16{fill:#CCCCCC;}
	.st17{fill:#F2F2F2;stroke:#FF7F86;stroke-width:4;stroke-miterlimit:10;}
	.st18{opacity:0.48;fill:#F2F2F2;stroke:#FF7F86;stroke-width:4;stroke-miterlimit:10;}
</style>
<g id="border">
	<path class="st0" d="M996.07,1038.14H83.79c-22.84,0-41.36-18.52-41.36-41.36V84.5c0-22.84,18.52-41.36,41.36-41.36h912.28
		c22.84,0,41.36,18.52,41.36,41.36v912.28C1037.43,1019.62,1018.91,1038.14,996.07,1038.14z"/>
</g>
<g id="splash_bg">
	<ellipse class="st1" cx="233.86" cy="255.47" rx="127.14" ry="64.66"/>
	<ellipse class="st1" cx="319.05" cy="351.96" rx="123.05" ry="63.85"/>
	<ellipse class="st1" cx="412.87" cy="245.43" rx="131.01" ry="74.7"/>
	<ellipse class="st1" cx="248.54" cy="402.78" rx="103.34" ry="61.6"/>
	<ellipse class="st1" cx="385.78" cy="421.46" rx="62.14" ry="29.36"/>
	<ellipse class="st1" cx="635.02" cy="670.67" rx="153.89" ry="83.34"/>
	<ellipse class="st1" cx="738.13" cy="795.03" rx="148.93" ry="82.3"/>
	<ellipse class="st1" cx="851.69" cy="657.72" rx="158.57" ry="96.29"/>
	<ellipse class="st1" cx="652.79" cy="860.53" rx="125.08" ry="79.39"/>
	<ellipse class="st1" cx="818.9" cy="884.6" rx="75.21" ry="37.85"/>
</g>
<g id="paper">
	<path class="st2" d="M410.93,428.99L245.19,458.3c-6.68,1.18-13.04-3.27-14.22-9.95l-44.98-254.36
		c-1.18-6.68,3.27-13.04,9.95-14.22l165.74-29.31c6.68-1.18,13.04,3.27,14.22,9.95l44.98,254.36
		C422.06,421.44,417.61,427.81,410.93,428.99z"/>
	<path class="st3" d="M408.92,445.8H240.61c-6.78,0-12.27-5.5-12.27-12.27V175.22c0-6.78,5.5-12.27,12.27-12.27h168.31
		c6.78,0,12.27,5.5,12.27,12.27v258.31C421.19,440.31,415.7,445.8,408.92,445.8z"/>
	<path class="st1" d="M272.26,227.12h-24.09c-2.67,0-4.84-2.17-4.84-4.84v-20.87c0-2.67,2.17-4.84,4.84-4.84h24.09
		c2.67,0,4.84,2.17,4.84,4.84v20.87C277.1,224.96,274.93,227.12,272.26,227.12z"/>
	<path class="st1" d="M272.26,317.55h-24.09c-2.67,0-4.84-2.17-4.84-4.84v-20.87c0-2.67,2.17-4.84,4.84-4.84h24.09
		c2.67,0,4.84,2.17,4.84,4.84v20.87C277.1,315.38,274.93,317.55,272.26,317.55z"/>
	<path class="st1" d="M271.81,362.76h-24.09c-2.67,0-4.84-2.17-4.84-4.84v-20.87c0-2.67,2.17-4.84,4.84-4.84h24.09
		c2.67,0,4.84,2.17,4.84,4.84v20.87C276.65,360.6,274.48,362.76,271.81,362.76z"/>
	<path class="st1" d="M271.81,407.98h-24.09c-2.67,0-4.84-2.17-4.84-4.84v-20.87c0-2.67,2.17-4.84,4.84-4.84h24.09
		c2.67,0,4.84,2.17,4.84,4.84v20.87C276.65,405.81,274.48,407.98,271.81,407.98z"/>
	<path class="st1" d="M271.81,272.34h-24.09c-2.67,0-4.84-2.17-4.84-4.84v-20.87c0-2.67,2.17-4.84,4.84-4.84h24.09
		c2.67,0,4.84,2.17,4.84,4.84v20.87C276.65,270.17,274.48,272.34,271.81,272.34z"/>
	<line class="st4" x1="296.58" y1="202.95" x2="382.52" y2="202.95"/>
	<line class="st4" x1="296.58" y1="211.85" x2="354.02" y2="211.85"/>
	<line class="st4" x1="296.58" y1="248.16" x2="382.52" y2="248.16"/>
	<line class="st4" x1="296.58" y1="257.06" x2="354.02" y2="257.06"/>
	<line class="st4" x1="296.58" y1="293.54" x2="382.52" y2="293.54"/>
	<line class="st4" x1="296.58" y1="302.44" x2="354.02" y2="302.44"/>
	<line class="st4" x1="296.58" y1="335.38" x2="382.52" y2="335.38"/>
	<line class="st4" x1="296.58" y1="344.28" x2="354.02" y2="344.28"/>
	<line class="st4" x1="296.58" y1="383.8" x2="382.52" y2="383.8"/>
	<line class="st4" x1="296.58" y1="392.7" x2="354.02" y2="392.7"/>
	<path class="st5" d="M249.04,213.35l3.92,3.65c0.87,0.81,2.22,0.83,3.12,0.04l14.61-12.91"/>
	<path class="st5" d="M249.8,259.54l3.92,3.65c0.87,0.81,2.22,0.83,3.12,0.04l14.61-12.91"/>
	<path class="st5" d="M249.8,304.91l3.92,3.65c0.87,0.81,2.22,0.83,3.12,0.04l14.61-12.91"/>
</g>
<g id="pencil">
	<path class="st6" d="M378.08,330.17c23.84-43.57,47.68-87.14,71.52-130.72c0.12-0.23,0.45-0.8,1.13-1.13
		c1.23-0.6,2.45,0.13,2.54,0.19c10.07,6.12,20.14,12.24,30.21,18.35c0.16,0.19,0.97,1.24,0.75,2.64c-0.11,0.72-0.45,1.24-0.66,1.51
		c-24.35,44.7-48.7,89.39-73.05,134.09c-2.32,4.28-5.64,7.8-9.63,10.2l-30.48,18.34c-0.88,0.53-1.9-0.34-1.73-1.48l5.92-41.23
		C375.15,337.11,376.33,333.45,378.08,330.17z"/>
	<polygon class="st1" points="376.19,342.79 405.84,360.62 370.74,381.2 	"/>
	<polyline class="st7" points="375.97,335.1 377.34,345.52 384,344.13 384.99,351.07 392.36,348.91 392.92,356.31 400.71,353.53 
		400.71,360.62 409.07,357.54 	"/>
	<line class="st3" x1="449.75" y1="225.77" x2="384.88" y2="346.94"/>
	<line class="st3" x1="459.48" y1="231.43" x2="393.15" y2="356.31"/>
	<line class="st3" x1="473.17" y1="239.4" x2="437.96" y2="218.92"/>
	<path class="st1" d="M453.31,200l29.06,17.06c0.92,0.54,1.23,1.72,0.7,2.65l-9.54,16.64c-0.54,0.93-1.73,1.26-2.66,0.72
		l-28.79-16.64c-0.91-0.53-1.24-1.69-0.74-2.61l9.27-17.06C451.14,199.78,452.36,199.44,453.31,200z"/>
	<line class="st3" x1="443.17" y1="211.21" x2="477.37" y2="230.98"/>
</g>
<g id="box">
	<rect x="572.33" y="694.14" class="st8" width="345.6" height="183.09"/>
	<rect x="609.6" y="730.28" class="st9" width="272.19" height="109.17"/>
	<rect x="602.39" y="759.69" class="st10" width="286.62" height="57.6"/>
	<text transform="matrix(1 0 0 1 620.4951 801.3773)" class="st11 st12 st13 st14">FEEDBACK</text>
	<rect x="558.17" y="668.17" class="st8" width="373.31" height="25.98"/>
	<rect x="572.33" y="694.14" class="st15" width="345.6" height="4.14"/>
	<polygon class="st16" points="558.17,668.17 579.11,597.58 905.51,597.58 931.49,668.17 	"/>
	<rect x="637.84" y="624.68" class="st15" width="206.12" height="8.19"/>
	<path class="st9" d="M686.12,632.87l25.66-144.07c0.82-4.63,4.98-7.9,9.67-7.62l90.23,5.36c5.76,0.34,9.94,5.63,8.95,11.31
		l-23.55,135.02H686.12z"/>
	<line class="st17" x1="723.67" y1="512.18" x2="798.59" y2="516.32"/>
	<line class="st17" x1="717.83" y1="540.12" x2="792.75" y2="544.27"/>
	<line class="st17" x1="712.53" y1="568.14" x2="787.45" y2="572.28"/>
	<line class="st17" x1="707.37" y1="595.51" x2="782.29" y2="599.65"/>
	<line class="st18" x1="721.6" y1="521.72" x2="765.84" y2="524.17"/>
	<line class="st18" x1="716.9" y1="548.31" x2="761.13" y2="550.75"/>
	<line class="st18" x1="711.06" y1="576.66" x2="755.29" y2="579.11"/>
	<line class="st18" x1="705.33" y1="605.01" x2="749.56" y2="607.46"/>
</g>
</svg>
