<svg
  width="21"
  height="21"
  viewBox="0 0 21 21"
  fill="none"
  xmlns="http://www.w3.org/2000/svg"
>
  <path
    d="M2.503 6.384L10.5 10.382L18.497 6.384C18.4674 5.87444 18.2441 5.39549 17.8728 5.04523C17.5016 4.69497 17.0104 4.49991 16.5 4.5H4.5C3.98958 4.49991 3.49845 4.69497 3.12718 5.04523C2.75591 5.39549 2.5326 5.87444 2.503 6.384Z"
    fill="white"
  />
  <path
    d="M18.5 8.61798L10.5 12.618L2.5 8.61798V14.5C2.5 15.0304 2.71071 15.5391 3.08579 15.9142C3.46086 16.2893 3.96957 16.5 4.5 16.5H16.5C17.0304 16.5 17.5391 16.2893 17.9142 15.9142C18.2893 15.5391 18.5 15.0304 18.5 14.5V8.61798Z"
    fill="white"
  />
</svg>
