<svg
  width="32"
  height="32"
  viewBox="0 0 32 32"
  fill="none"
  xmlns="http://www.w3.org/2000/svg"
>
  <path
    fill-rule="evenodd"
    clip-rule="evenodd"
    d="M4.80005 6.39999C4.80005 5.97564 4.96862 5.56868 5.26868 5.26862C5.56874 4.96856 5.9757 4.79999 6.40005 4.79999H25.6C26.0244 4.79999 26.4314 4.96856 26.7314 5.26862C27.0315 5.56868 27.2 5.97564 27.2 6.39999C27.2 6.82433 27.0315 7.2313 26.7314 7.53136C26.4314 7.83142 26.0244 7.99999 25.6 7.99999H6.40005C5.9757 7.99999 5.56874 7.83142 5.26868 7.53136C4.96862 7.2313 4.80005 6.82433 4.80005 6.39999ZM4.80005 12.8C4.80005 12.3756 4.96862 11.9687 5.26868 11.6686C5.56874 11.3686 5.9757 11.2 6.40005 11.2H25.6C26.0244 11.2 26.4314 11.3686 26.7314 11.6686C27.0315 11.9687 27.2 12.3756 27.2 12.8C27.2 13.2243 27.0315 13.6313 26.7314 13.9314C26.4314 14.2314 26.0244 14.4 25.6 14.4H6.40005C5.9757 14.4 5.56874 14.2314 5.26868 13.9314C4.96862 13.6313 4.80005 13.2243 4.80005 12.8ZM4.80005 19.2C4.80005 18.7756 4.96862 18.3687 5.26868 18.0686C5.56874 17.7686 5.9757 17.6 6.40005 17.6H25.6C26.0244 17.6 26.4314 17.7686 26.7314 18.0686C27.0315 18.3687 27.2 18.7756 27.2 19.2C27.2 19.6243 27.0315 20.0313 26.7314 20.3314C26.4314 20.6314 26.0244 20.8 25.6 20.8H6.40005C5.9757 20.8 5.56874 20.6314 5.26868 20.3314C4.96862 20.0313 4.80005 19.6243 4.80005 19.2ZM4.80005 25.6C4.80005 25.1756 4.96862 24.7687 5.26868 24.4686C5.56874 24.1686 5.9757 24 6.40005 24H25.6C26.0244 24 26.4314 24.1686 26.7314 24.4686C27.0315 24.7687 27.2 25.1756 27.2 25.6C27.2 26.0243 27.0315 26.4313 26.7314 26.7314C26.4314 27.0314 26.0244 27.2 25.6 27.2H6.40005C5.9757 27.2 5.56874 27.0314 5.26868 26.7314C4.96862 26.4313 4.80005 26.0243 4.80005 25.6Z"
    fill="#3F3F46"
  />
</svg>
