<svg
  width="35"
  height="35"
  viewBox="0 0 35 35"
  fill="none"
  xmlns="http://www.w3.org/2000/svg"
>
  <path
    d="M18.8869 4.26854C18.4508 2.92542 16.5506 2.92542 16.1131 4.26854L13.8979 11.0848C13.8025 11.3774 13.617 11.6323 13.3679 11.8131C13.1187 11.9938 12.8188 12.0911 12.5111 12.091H5.34481C3.93314 12.091 3.34398 13.8994 4.48731 14.7306L10.2856 18.9423C10.5347 19.1234 10.7201 19.3786 10.8152 19.6715C10.9103 19.9644 10.9102 20.2799 10.815 20.5727L8.60127 27.389C8.16377 28.7321 9.70231 29.8506 10.8442 29.0194L16.6425 24.8077C16.8917 24.6265 17.1919 24.529 17.5 24.529C17.8081 24.529 18.1083 24.6265 18.3575 24.8077L24.1558 29.0194C25.2977 29.8506 26.8363 28.7335 26.3988 27.389L24.185 20.5727C24.0898 20.2799 24.0898 19.9644 24.1849 19.6715C24.28 19.3786 24.4653 19.1234 24.7144 18.9423L30.5127 14.7306C31.6546 13.8994 31.0683 12.091 29.6552 12.091H22.4875C22.18 12.0908 21.8804 11.9934 21.6316 11.8127C21.3828 11.6319 21.1974 11.3772 21.1021 11.0848L18.8869 4.26854Z"
    stroke="#3F3F46"
    stroke-width="2"
    stroke-linecap="round"
    stroke-linejoin="round"
  />
</svg>
