<svg
  width="30"
  height="30"
  viewBox="0 0 30 30"
  fill="none"
  xmlns="http://www.w3.org/2000/svg"
>
  <path
    fill-rule="evenodd"
    clip-rule="evenodd"
    d="M13.5 3C13.2215 3.00015 12.9486 3.07782 12.7117 3.22433C12.4749 3.37083 12.2835 3.58038 12.159 3.8295L11.073 6H6C5.60218 6 5.22064 6.15804 4.93934 6.43934C4.65804 6.72064 4.5 7.10218 4.5 7.5C4.5 7.89782 4.65804 8.27936 4.93934 8.56066C5.22064 8.84196 5.60218 9 6 9V24C6 24.7956 6.31607 25.5587 6.87868 26.1213C7.44129 26.6839 8.20435 27 9 27H21C21.7956 27 22.5587 26.6839 23.1213 26.1213C23.6839 25.5587 24 24.7956 24 24V9C24.3978 9 24.7794 8.84196 25.0607 8.56066C25.342 8.27936 25.5 7.89782 25.5 7.5C25.5 7.10218 25.342 6.72064 25.0607 6.43934C24.7794 6.15804 24.3978 6 24 6H18.927L17.841 3.8295C17.7165 3.58038 17.5251 3.37083 17.2883 3.22433C17.0514 3.07782 16.7785 3.00015 16.5 3H13.5ZM10.5 12C10.5 11.6022 10.658 11.2206 10.9393 10.9393C11.2206 10.658 11.6022 10.5 12 10.5C12.3978 10.5 12.7794 10.658 13.0607 10.9393C13.342 11.2206 13.5 11.6022 13.5 12V21C13.5 21.3978 13.342 21.7794 13.0607 22.0607C12.7794 22.342 12.3978 22.5 12 22.5C11.6022 22.5 11.2206 22.342 10.9393 22.0607C10.658 21.7794 10.5 21.3978 10.5 21V12ZM18 10.5C17.6022 10.5 17.2206 10.658 16.9393 10.9393C16.658 11.2206 16.5 11.6022 16.5 12V21C16.5 21.3978 16.658 21.7794 16.9393 22.0607C17.2206 22.342 17.6022 22.5 18 22.5C18.3978 22.5 18.7794 22.342 19.0607 22.0607C19.342 21.7794 19.5 21.3978 19.5 21V12C19.5 11.6022 19.342 11.2206 19.0607 10.9393C18.7794 10.658 18.3978 10.5 18 10.5Z"
    fill="#EF4444"
  />
</svg>
