<svg
  width="32"
  height="32"
  viewBox="0 0 32 32"
  fill="none"
  xmlns="http://www.w3.org/2000/svg"
>
  <path
    fill-rule="evenodd"
    clip-rule="evenodd"
    d="M4.80005 11.2C4.80005 10.7757 4.96862 10.3687 5.26868 10.0686C5.56874 9.76858 5.9757 9.60001 6.40005 9.60001H25.6C26.0244 9.60001 26.4314 9.76858 26.7314 10.0686C27.0315 10.3687 27.2 10.7757 27.2 11.2C27.2 11.6244 27.0315 12.0313 26.7314 12.3314C26.4314 12.6314 26.0244 12.8 25.6 12.8H6.40005C5.9757 12.8 5.56874 12.6314 5.26868 12.3314C4.96862 12.0313 4.80005 11.6244 4.80005 11.2ZM4.80005 20.8C4.80005 20.3757 4.96862 19.9687 5.26868 19.6686C5.56874 19.3686 5.9757 19.2 6.40005 19.2H25.6C26.0244 19.2 26.4314 19.3686 26.7314 19.6686C27.0315 19.9687 27.2 20.3757 27.2 20.8C27.2 21.2244 27.0315 21.6313 26.7314 21.9314C26.4314 22.2314 26.0244 22.4 25.6 22.4H6.40005C5.9757 22.4 5.56874 22.2314 5.26868 21.9314C4.96862 21.6313 4.80005 21.2244 4.80005 20.8Z"
    fill="#3F3F46"
  />
</svg>
