<svg
  width="43"
  height="43"
  viewBox="0 0 43 43"
  fill="none"
  xmlns="http://www.w3.org/2000/svg"
>
  <path
    d="M19.4553 6.29322C20.1003 4.31307 22.9018 4.31307 23.5446 6.29322L25.8451 13.371C25.9857 13.8021 26.2589 14.1777 26.6257 14.4441C26.9926 14.7105 27.4343 14.8542 27.8876 14.8545H35.3309C37.4143 14.8545 38.2786 17.5205 36.5951 18.746L30.5751 23.1191C30.2076 23.3858 29.9339 23.762 29.7933 24.1938C29.6527 24.6256 29.6524 25.0909 29.7925 25.5228L32.093 32.6006C32.738 34.5808 30.4698 36.2298 28.782 35.0043L22.762 30.6312C22.3948 30.3646 21.9527 30.2211 21.4989 30.2211C21.0451 30.2211 20.603 30.3646 20.2358 30.6312L14.2158 35.0043C12.5302 36.2298 10.2641 34.5808 10.9069 32.6006L13.2074 25.5228C13.3476 25.0909 13.3473 24.6256 13.2067 24.1938C13.0661 23.762 12.7924 23.3858 12.4248 23.1191L6.40699 18.7482C4.72354 17.5227 5.58999 14.8567 7.67119 14.8567H15.1123C15.5661 14.8568 16.0083 14.7133 16.3755 14.4469C16.7428 14.1804 17.0163 13.8046 17.157 13.3732L19.4575 6.29537L19.4553 6.29322Z"
    fill="#3B82F6"
  />
</svg>
