<svg
  width="40"
  height="40"
  viewBox="0 0 40 40"
  fill="none"
  xmlns="http://www.w3.org/2000/svg"
>
  <path
    d="M21.5849 4.8783C21.0866 3.3433 18.9149 3.3433 18.4149 4.8783L15.8832 12.6683C15.7742 13.0027 15.5622 13.2941 15.2775 13.5006C14.9928 13.7072 14.65 13.8184 14.2982 13.8183H6.10825C4.49491 13.8183 3.82158 15.885 5.12825 16.835L11.7549 21.6483C12.0396 21.8552 12.2514 22.147 12.3601 22.4817C12.4688 22.8164 12.4687 23.1769 12.3599 23.5116L9.82991 31.3016C9.32991 32.8366 11.0882 34.115 12.3932 33.165L19.0199 28.3516C19.3047 28.1446 19.6478 28.0331 19.9999 28.0331C20.352 28.0331 20.6951 28.1446 20.9799 28.3516L27.6066 33.165C28.9116 34.115 30.6699 32.8383 30.1699 31.3016L27.6399 23.5116C27.5311 23.1769 27.5311 22.8164 27.6397 22.4817C27.7484 22.147 27.9603 21.8552 28.2449 21.6483L34.8716 16.835C36.1766 15.885 35.5066 13.8183 33.8916 13.8183H25.6999C25.3485 13.818 25.0061 13.7067 24.7217 13.5001C24.4373 13.2936 24.2255 13.0024 24.1166 12.6683L21.5849 4.8783Z"
    stroke="#3F3F46"
    stroke-width="2"
    stroke-linecap="round"
    stroke-linejoin="round"
  />
</svg>
