<svg
  width="15"
  height="16"
  viewBox="0 0 15 16"
  fill="none"
  xmlns="http://www.w3.org/2000/svg"
>
  <path
    fill-rule="evenodd"
    clip-rule="evenodd"
    d="M6.5 0C6.31434 9.91486e-05 6.13237 0.0518831 5.97447 0.149552C5.81658 0.247222 5.68899 0.386919 5.606 0.553L4.882 2H1.5C1.23478 2 0.98043 2.10536 0.792893 2.29289C0.605357 2.48043 0.5 2.73478 0.5 3C0.5 3.26522 0.605357 3.51957 0.792893 3.70711C0.98043 3.89464 1.23478 4 1.5 4V14C1.5 14.5304 1.71071 15.0391 2.08579 15.4142C2.46086 15.7893 2.96957 16 3.5 16H11.5C12.0304 16 12.5391 15.7893 12.9142 15.4142C13.2893 15.0391 13.5 14.5304 13.5 14V4C13.7652 4 14.0196 3.89464 14.2071 3.70711C14.3946 3.51957 14.5 3.26522 14.5 3C14.5 2.73478 14.3946 2.48043 14.2071 2.29289C14.0196 2.10536 13.7652 2 13.5 2H10.118L9.394 0.553C9.31101 0.386919 9.18342 0.247222 9.02553 0.149552C8.86763 0.0518831 8.68566 9.91486e-05 8.5 0H6.5ZM4.5 6C4.5 5.73478 4.60536 5.48043 4.79289 5.29289C4.98043 5.10536 5.23478 5 5.5 5C5.76522 5 6.01957 5.10536 6.20711 5.29289C6.39464 5.48043 6.5 5.73478 6.5 6V12C6.5 12.2652 6.39464 12.5196 6.20711 12.7071C6.01957 12.8946 5.76522 13 5.5 13C5.23478 13 4.98043 12.8946 4.79289 12.7071C4.60536 12.5196 4.5 12.2652 4.5 12V6ZM9.5 5C9.23478 5 8.98043 5.10536 8.79289 5.29289C8.60536 5.48043 8.5 5.73478 8.5 6V12C8.5 12.2652 8.60536 12.5196 8.79289 12.7071C8.98043 12.8946 9.23478 13 9.5 13C9.76522 13 10.0196 12.8946 10.2071 12.7071C10.3946 12.5196 10.5 12.2652 10.5 12V6C10.5 5.73478 10.3946 5.48043 10.2071 5.29289C10.0196 5.10536 9.76522 5 9.5 5Z"
    fill="white"
  />
</svg>
